<?xml version="1.0" encoding="UTF-8" standalone="no"?>
<!-- Created with Inkscape (http://www.inkscape.org/) -->

<svg
   xmlns:dc="http://purl.org/dc/elements/1.1/"
   xmlns:cc="http://creativecommons.org/ns#"
   xmlns:rdf="http://www.w3.org/1999/02/22-rdf-syntax-ns#"
   xmlns:svg="http://www.w3.org/2000/svg"
   xmlns="http://www.w3.org/2000/svg"
   xmlns:sodipodi="http://sodipodi.sourceforge.net/DTD/sodipodi-0.dtd"
   xmlns:inkscape="http://www.inkscape.org/namespaces/inkscape"
   id="svg4155"
   version="1.1"
   inkscape:version="0.91 r13725"
   xml:space="preserve"
   width="94.599998"
   height="40.500004"
   viewBox="0 0 94.599998 40.500004"
   sodipodi:docname="otago_university_logo.svg"><metadata
     id="metadata4161"><rdf:RDF><cc:Work
         rdf:about=""><dc:format>image/svg+xml</dc:format><dc:type
           rdf:resource="http://purl.org/dc/dcmitype/StillImage" /><dc:title></dc:title></cc:Work></rdf:RDF></metadata><defs
     id="defs4159" /><sodipodi:namedview
     pagecolor="#ffffff"
     bordercolor="#666666"
     borderopacity="1"
     objecttolerance="10"
     gridtolerance="10"
     guidetolerance="10"
     inkscape:pageopacity="0"
     inkscape:pageshadow="2"
     inkscape:window-width="1920"
     inkscape:window-height="1080"
     id="namedview4157"
     showgrid="false"
     inkscape:zoom="8"
     inkscape:cx="51.376911"
     inkscape:cy="16.791332"
     inkscape:window-x="0"
     inkscape:window-y="0"
     inkscape:window-maximized="1"
     inkscape:current-layer="g4163" /><g
     id="g4163"
     inkscape:groupmode="layer"
     inkscape:label="otago_logo"
     transform="matrix(1.25,0,0,-1.25,0,40.500002)"><g
       id="g4165"><path
         d="m 29.359,19.759 c 0,3.2 1.762,4.961 3.762,4.961 2.481,0 4.238,-2.16 4.238,-5.84 0,-3.121 -1.679,-4.878 -3.679,-4.878 -2.641,0.078 -4.321,2.476 -4.321,5.757 m -1.679,-0.48 c 0,-3.117 2.242,-5.52 5.519,-5.52 3.281,0 5.762,2.403 5.762,5.84 0,3.281 -2.481,5.52 -5.359,5.52 -3.922,0 -5.922,-2.957 -5.922,-5.84"
         style="fill:#000000;fill-opacity:1;fill-rule:nonzero;stroke:none"
         id="path4167"
         inkscape:connector-curvature="0" /><path
         d="m 41.039,22.162 c -0.32,0 -0.559,0 -0.719,0.316 l -0.16,0 c 0,-0.637 -0.082,-1.437 -0.16,-2.238 l 0.16,0 c 0.16,0.558 0.399,0.879 0.559,1.121 0.16,0.238 0.48,0.48 1.679,0.48 l 0.641,0 0,-6.082 c 0,-1.359 -0.078,-1.519 -1.277,-1.679 l 0,-0.078 3.679,0 0,0.16 c -1.281,0.16 -1.363,0.316 -1.363,1.679 l 0,6.079 0.961,0 c 0.801,0 1.199,-0.161 1.359,-0.399 0.161,-0.242 0.321,-0.562 0.563,-1.199 l 0.16,0 c -0.082,0.719 -0.16,1.68 -0.16,2.156 l -0.16,0 C 46.559,22.24 46.48,22.162 46.16,22.162 l -5.121,0 z"
         style="fill:#000000;fill-opacity:1;fill-rule:nonzero;stroke:none"
         id="path4169"
         inkscape:connector-curvature="0" /><path
         d="m 51.441,20.72 1.278,-3.199 -2.481,0 1.203,3.199 z m -1.121,-6.718 0,0.16 -0.242,0.078 c -0.719,0.16 -0.797,0.32 -0.637,1.039 0.161,0.48 0.481,1.519 0.637,1.84 l 2.723,0 c 0.398,-0.957 0.719,-1.918 0.801,-2.239 0.078,-0.402 0.078,-0.48 -0.403,-0.64 l -0.398,-0.078 0,-0.16 3.039,0 0,0.16 c -0.801,0.16 -0.961,0.316 -1.36,1.359 C 54,16.798 53.441,18.4 52.801,20.002 L 51.84,22.4 51.68,22.322 49.039,15.681 C 48.559,14.478 48.398,14.4 47.602,14.162 l 0,-0.16 2.718,0 z"
         style="fill:#000000;fill-opacity:1;fill-rule:nonzero;stroke:none"
         id="path4171"
         inkscape:connector-curvature="0" /><path
         d="m 64.48,20.08 c -0.082,0.879 -0.16,1.519 -0.242,1.922 -0.476,0.078 -1.359,0.32 -2.476,0.32 -2.403,0 -4.723,-1.524 -4.723,-4.402 0,-2.481 2,-4.161 4.641,-4.161 0.961,0 2,0.321 2.8,0.481 -0.082,0.32 -0.082,0.719 -0.082,1.121 l 0,0.879 c 0,0.879 0.082,0.961 0.801,1.121 l 0,0.16 -3.277,0 0,-0.16 c 1.437,-0.16 1.437,-0.32 1.437,-1.121 l 0,-1.199 c 0,-0.563 -0.16,-0.719 -0.48,-0.801 -0.32,-0.16 -0.719,-0.16 -1.117,-0.16 -2.563,0 -3.442,2.242 -3.442,4.16 0,2.398 1.282,3.84 3.2,3.84 1.199,0 2.242,-0.481 2.718,-2 l 0.242,0 z"
         style="fill:#000000;fill-opacity:1;fill-rule:nonzero;stroke:none"
         id="path4173"
         inkscape:connector-curvature="0" /><path
         d="m 68.238,18.322 c 0,2.398 1.282,3.758 2.801,3.758 1.84,0 3.199,-1.602 3.199,-4.321 0,-2.32 -1.277,-3.679 -2.797,-3.679 -1.921,0 -3.203,1.84 -3.203,4.242 M 66.961,17.92 c 0,-2.321 1.68,-4.161 4.16,-4.161 2.481,0 4.32,1.762 4.32,4.403 0,2.476 -1.839,4.16 -4.082,4.16 -2.879,0 -4.398,-2.242 -4.398,-4.402"
         style="fill:#000000;fill-opacity:1;fill-rule:nonzero;stroke:none"
         id="path4175"
         inkscape:connector-curvature="0" /><path
         d="m 50.48,26.162 c 0.161,0 0.239,-0.082 0.239,-0.321 0,-0.402 -0.16,-0.8 -0.321,-0.8 l -0.078,0 c -0.16,0 -0.242,0.16 -0.242,0.398 0,0.481 0.242,0.723 0.32,0.801 0,-0.078 0.082,-0.078 0.082,-0.078 m 0.079,0.078 c -0.079,0 -0.239,0 -0.399,-0.078 -0.238,-0.16 -0.48,-0.403 -0.48,-0.883 0,-0.238 0.082,-0.481 0.48,-0.481 0.16,0 0.399,0.082 0.481,0.243 0.238,0.16 0.32,0.48 0.32,0.8 0.078,0.239 -0.082,0.399 -0.402,0.399"
         style="fill:#000000;fill-opacity:1;fill-rule:nonzero;stroke:none"
         id="path4177"
         inkscape:connector-curvature="0" /><path
         d="m 53.039,26.24 c 0.082,0.64 0.16,0.719 0.242,0.719 0.078,0 0.16,-0.079 0.239,-0.079 l 0.082,0 c 0,0 0.078,0.079 0.078,0.161 0,0.078 -0.078,0.16 -0.239,0.16 -0.242,0 -0.402,-0.16 -0.562,-0.242 -0.16,-0.161 -0.238,-0.399 -0.238,-0.637 l -0.161,0 -0.082,-0.082 0.243,0 C 52.559,26.002 52.559,25.681 52.48,25.361 52.398,24.798 52.32,24.56 52.32,24.56 l -0.082,0 c 0,0 -0.078,0 -0.16,0.078 l -0.078,0 c 0,0 -0.078,-0.078 -0.078,-0.16 0,-0.078 0.078,-0.078 0.156,-0.078 0.082,0 0.242,0.078 0.402,0.238 0.161,0.16 0.321,0.481 0.399,1.043 0.082,0.239 0.082,0.399 0.16,0.719 l 0.32,0 0.082,0.078 -0.402,0 0,-0.238 z"
         style="fill:#000000;fill-opacity:1;fill-rule:nonzero;stroke:none"
         id="path4179"
         inkscape:connector-curvature="0" /><path
         d="m 27.121,32.24 0,-0.16 c 0.399,0 0.481,-0.078 0.481,-0.641 l 0,-1.199 c 0,-0.641 0.078,-0.961 0.398,-1.199 0.238,-0.243 0.641,-0.243 0.961,-0.243 0.398,0 0.719,0.161 0.961,0.403 0.316,0.32 0.398,0.719 0.398,1.199 l 0,0.398 c 0,0.563 0,0.883 0.078,1.043 0,0.161 0.161,0.239 0.403,0.239 l 0,0.16 -1.281,0 0,-0.16 c 0.32,0 0.48,-0.078 0.48,-0.239 0,-0.16 0.078,-0.402 0.078,-1.043 l 0,-0.32 c 0,-0.879 -0.316,-1.359 -0.957,-1.359 -0.641,0 -0.883,0.48 -0.883,1.281 l 0,1.121 c 0,0.559 0.082,0.559 0.403,0.641 l 0,0.078 -1.52,0 z"
         style="fill:#000000;fill-opacity:1;fill-rule:nonzero;stroke:none"
         id="path4181"
         inkscape:connector-curvature="0" /><path
         d="m 32.961,32.24 0,-0.16 c 0.398,0 0.559,-0.16 0.559,-0.719 l 0,-1.039 c 0,-0.563 0,-0.883 -0.079,-1.043 0,-0.16 -0.16,-0.238 -0.402,-0.238 l 0,-0.161 1.281,0 0,0.239 c -0.32,0 -0.48,0.082 -0.48,0.242 0,0.16 -0.078,0.398 -0.078,1.039 l 0,1.121 2.16,-2.562 0.238,0 0,1.839 c 0,0.563 0,0.883 0.078,1.043 0,0.161 0.16,0.239 0.403,0.239 l 0,0.16 -1.282,0 0,-0.16 c 0.321,0 0.481,-0.078 0.481,-0.239 0,-0.16 0.082,-0.402 0.082,-1.043 l 0,-0.957 -2.082,2.399 -0.879,0 z"
         style="fill:#000000;fill-opacity:1;fill-rule:nonzero;stroke:none"
         id="path4183"
         inkscape:connector-curvature="0" /><path
         d="m 38.961,32.24 0,-0.16 c 0.398,0 0.48,-0.078 0.48,-0.641 l 0,-1.758 c 0,-0.562 -0.082,-0.562 -0.48,-0.64 l 0,-0.161 1.437,0 0,0.239 C 40,29.119 40,29.201 40,29.759 l 0,1.762 c 0,0.559 0.078,0.559 0.398,0.641 l 0,0.078 -1.437,0 z"
         style="fill:#000000;fill-opacity:1;fill-rule:nonzero;stroke:none"
         id="path4185"
         inkscape:connector-curvature="0" /><path
         d="m 42.641,32.24 0,-0.16 c 0.32,0 0.398,-0.078 0.558,-0.559 0.16,-0.48 0.723,-1.762 1.039,-2.723 l 0.242,0 c 0.399,1.122 1.04,2.641 1.122,2.801 0.238,0.481 0.238,0.481 0.558,0.563 l 0,0.078 -1.199,0 0,-0.16 0.16,0 c 0.238,0 0.238,-0.078 0.16,-0.399 -0.082,-0.242 -0.562,-1.441 -0.722,-2 -0.321,0.797 -0.719,1.84 -0.797,2.16 -0.082,0.161 -0.082,0.239 0.16,0.239 l 0.156,0 0,0.16 -1.437,0 z"
         style="fill:#000000;fill-opacity:1;fill-rule:nonzero;stroke:none"
         id="path4187"
         inkscape:connector-curvature="0" /><path
         d="m 48.48,32.24 0,-0.16 c 0.399,0 0.399,-0.078 0.399,-0.641 l 0,-1.758 c 0,-0.562 -0.078,-0.562 -0.481,-0.64 l 0,-0.161 2.563,0 c 0.078,0.161 0.16,0.641 0.16,0.801 l -0.16,0 c -0.082,-0.242 -0.16,-0.402 -0.242,-0.48 -0.078,-0.16 -0.321,-0.16 -0.641,-0.16 -0.238,0 -0.398,0 -0.476,0.078 -0.082,0.082 -0.082,0.242 -0.082,0.48 l 0,0.801 0.48,0 c 0.48,0 0.48,0 0.48,-0.398 l 0.161,0 0,1.199 -0.243,0 c 0,-0.403 -0.078,-0.403 -0.476,-0.403 l -0.481,0 0,1.043 c 0,0.161 0,0.161 0.239,0.161 l 0.242,0 c 0.316,0 0.476,0 0.558,-0.082 0.079,-0.079 0.161,-0.239 0.161,-0.481 l 0.16,0 c 0,0.32 -0.082,0.723 -0.082,0.801 l -2.239,0 z"
         style="fill:#000000;fill-opacity:1;fill-rule:nonzero;stroke:none"
         id="path4189"
         inkscape:connector-curvature="0" /><path
         d="m 53.441,32.24 0,-0.16 c 0.399,0 0.399,-0.078 0.399,-0.641 l 0,-1.758 c 0,-0.562 -0.078,-0.562 -0.481,-0.64 l 0,-0.161 1.442,0 0,0.239 c -0.403,0 -0.403,0.082 -0.403,0.64 l 0,0.641 0.161,0 c 0.16,0 0.242,-0.078 0.32,-0.16 0.16,-0.238 0.32,-0.559 0.48,-0.801 0.243,-0.32 0.403,-0.398 0.961,-0.48 l 0.239,0 0,0.16 c -0.161,0 -0.239,0.082 -0.321,0.242 -0.078,0.078 -0.238,0.32 -0.398,0.559 -0.16,0.242 -0.399,0.558 -0.481,0.718 0.403,0.082 0.641,0.403 0.641,0.801 0,0.32 -0.16,0.481 -0.32,0.641 -0.239,0.16 -0.481,0.16 -0.879,0.16 l -1.36,0 z m 1.039,-0.32 c 0,0.16 0,0.16 0.239,0.16 0.32,0 0.722,-0.16 0.722,-0.719 0,-0.242 -0.082,-0.481 -0.32,-0.641 -0.16,-0.082 -0.242,-0.16 -0.48,-0.16 l -0.161,0 0,1.36 z"
         style="fill:#000000;fill-opacity:1;fill-rule:nonzero;stroke:none"
         id="path4191"
         inkscape:connector-curvature="0" /><path
         d="m 60.879,31.521 c -0.078,0.32 -0.078,0.481 -0.16,0.719 -0.078,0 -0.16,0 -0.239,0.082 C 60.32,32.4 60.16,32.4 60,32.4 c -0.719,0 -1.121,-0.398 -1.121,-0.961 0,-0.48 0.402,-0.801 0.801,-0.961 L 59.84,30.4 c 0.398,-0.16 0.558,-0.398 0.558,-0.719 0,-0.32 -0.238,-0.562 -0.558,-0.562 -0.559,0 -0.801,0.562 -0.879,0.801 l -0.16,-0.079 c 0.078,-0.32 0.078,-0.64 0.16,-0.8 0.078,0 0.16,-0.082 0.32,-0.082 0.16,-0.079 0.321,-0.079 0.481,-0.079 0.718,0 1.199,0.399 1.199,1.04 0,0.558 -0.402,0.8 -0.801,0.96 L 60,30.959 c -0.398,0.16 -0.641,0.402 -0.641,0.64 0,0.321 0.161,0.563 0.563,0.563 0.398,0 0.558,-0.321 0.719,-0.641 l 0.238,0 z"
         style="fill:#000000;fill-opacity:1;fill-rule:nonzero;stroke:none"
         id="path4193"
         inkscape:connector-curvature="0" /><path
         d="m 63.441,32.24 0,-0.16 c 0.399,0 0.481,-0.078 0.481,-0.641 l 0,-1.758 c 0,-0.562 -0.082,-0.562 -0.481,-0.64 l 0,-0.161 1.438,0 0,0.239 c -0.399,0 -0.399,0.082 -0.399,0.64 l 0,1.762 c 0,0.559 0.079,0.559 0.399,0.641 l 0,0.078 -1.438,0 z"
         style="fill:#000000;fill-opacity:1;fill-rule:nonzero;stroke:none"
         id="path4195"
         inkscape:connector-curvature="0" /><path
         d="m 67.441,31.439 c 0.079,0.242 0.161,0.402 0.161,0.481 0.078,0.082 0.238,0.16 0.636,0.16 l 0.16,0 0,-2.321 c 0,-0.558 -0.078,-0.558 -0.476,-0.64 l 0,-0.16 1.598,0 0,0.16 c -0.481,0 -0.481,0.082 -0.481,0.64 l 0,2.321 0.242,0 c 0.321,0 0.481,0 0.559,-0.16 C 69.922,31.841 70,31.681 70,31.439 l 0.16,0 c 0,0.32 -0.082,0.723 -0.082,0.961 L 70,32.4 c -0.078,-0.078 -0.078,-0.16 -0.238,-0.16 l -2.16,0 c -0.161,0 -0.161,0 -0.243,0.16 l -0.078,0 c 0,-0.238 -0.082,-0.641 -0.082,-0.961 l 0.242,0 z"
         style="fill:#000000;fill-opacity:1;fill-rule:nonzero;stroke:none"
         id="path4197"
         inkscape:connector-curvature="0" /><path
         d="m 72.48,32.24 0,-0.16 c 0.239,0 0.321,-0.078 0.481,-0.399 0.32,-0.562 0.559,-0.883 0.719,-1.203 0.082,-0.156 0.082,-0.156 0.082,-0.238 l 0,-0.481 c 0,-0.558 -0.082,-0.558 -0.481,-0.64 l 0,-0.16 1.598,0 0,0.16 c -0.481,0 -0.481,0.082 -0.481,0.64 l 0,0.481 c 0,0.16 0,0.238 0.082,0.32 0.239,0.481 0.481,0.801 0.641,1.121 0.238,0.321 0.238,0.399 0.559,0.399 l 0,0.16 -1.2,0 0,-0.16 0.239,0 c 0.16,0 0.242,-0.078 0.16,-0.239 -0.16,-0.32 -0.481,-0.882 -0.641,-1.203 -0.238,0.403 -0.636,0.961 -0.718,1.203 -0.079,0.161 -0.079,0.239 0.082,0.239 l 0.238,0 0,0.16 -1.36,0 z"
         style="fill:#000000;fill-opacity:1;fill-rule:nonzero;stroke:none"
         id="path4199"
         inkscape:connector-curvature="0" /><path
         d="m 27.602,27.92 48.078,0 0,-0.16 -48.078,0 0,0.16 z"
         style="fill:#000000;fill-opacity:1;fill-rule:nonzero;stroke:none"
         id="path4201"
         inkscape:connector-curvature="0" /><path
         d="m 49.121,7.599 1.199,0 0,-0.238 -1.199,0 0,0.238 z"
         style="fill:#000000;fill-opacity:1;fill-rule:nonzero;stroke:none"
         id="path4203"
         inkscape:connector-curvature="0" /><path
         d="m 70.559,7.599 1.203,0 0,-0.238 -1.203,0 0,0.238 z"
         style="fill:#000000;fill-opacity:1;fill-rule:nonzero;stroke:none"
         id="path4205"
         inkscape:connector-curvature="0" /><path
         d="m 0,3.841 0,-3.839 22.238,0 0,3.839 -1.117,1.598 1.117,0.723 0,4.718 -0.16,-0.16 -3.758,-1.84 0,-5.039 -14.398,0 0,4.797 L 0,10.638 0,5.92 1.039,5.201 0,3.841 Z"
         style="fill:#00508f;fill-opacity:1;fill-rule:nonzero;stroke:none"
         id="path4207"
         inkscape:connector-curvature="0" /><path
         d="M 21.84,3.841 C 21.359,4.56 19.039,7.599 18.641,8.162 l 0,-4.321 3.199,0 z"
         style="fill:#ffffff;fill-opacity:1;fill-rule:nonzero;stroke:none"
         id="path4209"
         inkscape:connector-curvature="0" /><path
         d="m 3.602,3.841 0,4.239 C 3.199,7.521 0.879,4.56 0.398,3.841 l 3.204,0 z"
         style="fill:#ffffff;fill-opacity:1;fill-rule:nonzero;stroke:none"
         id="path4211"
         inkscape:connector-curvature="0" /><path
         d="m 0.32,3.521 21.68,0 0,-3.281 -21.68,0 0,3.281 z"
         style="fill:#ffffff;fill-opacity:1;fill-rule:nonzero;stroke:none"
         id="path4213"
         inkscape:connector-curvature="0" /><path
         d="M 3.281,2.4 C 3.199,2.478 3.039,2.478 2.961,2.478 2.719,2.478 2.48,2.322 2.48,2.162 c 0,-0.403 0.641,-0.403 0.641,-0.641 0,-0.082 -0.082,-0.16 -0.242,-0.16 -0.16,0 -0.32,0.078 -0.399,0.16 l 0,-0.242 C 2.559,1.201 2.719,1.201 2.879,1.201 c 0.242,0 0.402,0.16 0.402,0.398 0,0.403 -0.64,0.403 -0.64,0.641 0,0.082 0.078,0.16 0.238,0.16 0.082,0 0.242,0 0.32,-0.16 l 0,0.16 0.082,0 z"
         style="fill:#00508f;fill-opacity:1;fill-rule:nonzero;stroke:none"
         id="path4215"
         inkscape:connector-curvature="0" /><path
         d="m 4.398,2.24 0.243,-0.481 -0.481,0 0.238,0.481 z m 0.082,0.238 -0.16,0 -0.64,-1.277 0.242,0 0.156,0.398 0.641,0 0.242,-0.398 0.238,0 -0.719,1.277 z"
         style="fill:#00508f;fill-opacity:1;fill-rule:nonzero;stroke:none"
         id="path4217"
         inkscape:connector-curvature="0" /><path
         d="m 5.84,2.322 0.238,0 C 6.238,2.322 6.32,2.24 6.32,2.08 6.32,1.92 6.238,1.841 6.078,1.841 l -0.238,0 0,0.481 z m -0.238,0.156 0,-1.277 0.238,0 0,0.558 0.238,0 c 0.32,0 0.481,0.161 0.481,0.403 0,0.238 -0.161,0.398 -0.481,0.398 l -0.476,0 0,-0.082 z"
         style="fill:#00508f;fill-opacity:1;fill-rule:nonzero;stroke:none"
         id="path4219"
         inkscape:connector-curvature="0" /><path
         d="m 8,1.201 0,0.16 -0.719,0 0,0.398 0.641,0 0,0.161 -0.641,0 0,0.402 0.641,0 0,0.156 -0.801,0 0,-1.277 0.879,0 z"
         style="fill:#00508f;fill-opacity:1;fill-rule:nonzero;stroke:none"
         id="path4221"
         inkscape:connector-curvature="0" /><path
         d="m 8.719,2.322 0.16,0 c 0.242,0 0.32,-0.082 0.32,-0.242 0,-0.078 -0.078,-0.239 -0.32,-0.239 l -0.16,0 0,0.481 z m -0.239,0.156 0,-1.277 0.239,0 0,0.558 0.082,0 c 0.078,0 0.238,0 0.398,-0.32 l 0.242,-0.238 0.239,0 C 9.602,1.361 9.52,1.361 9.441,1.439 9.359,1.599 9.199,1.759 9.121,1.841 9.281,1.92 9.359,2.002 9.359,2.162 9.359,2.4 9.199,2.56 8.879,2.56 l -0.399,0 0,-0.082 z"
         style="fill:#00508f;fill-opacity:1;fill-rule:nonzero;stroke:none"
         id="path4223"
         inkscape:connector-curvature="0" /><path
         d="m 11.039,1.201 0,0.16 -0.641,0 0,0.398 0.563,0 0,0.161 -0.563,0 0,0.402 0.641,0 0,0.156 -0.879,0 0,-1.277 0.879,0 z"
         style="fill:#00508f;fill-opacity:1;fill-rule:nonzero;stroke:none"
         id="path4225"
         inkscape:connector-curvature="0" /><path
         d="M 13.762,2.24 14,1.759 l -0.398,0 0.16,0.481 z m 0.078,0.238 -0.16,0 -0.641,-1.277 0.242,0 0.16,0.398 0.637,0 0.242,-0.398 0.239,0 -0.719,1.277 z"
         style="fill:#00508f;fill-opacity:1;fill-rule:nonzero;stroke:none"
         id="path4227"
         inkscape:connector-curvature="0" /><path
         d="m 16.238,2.478 -0.238,0 0,-0.797 c 0,-0.16 0,-0.242 -0.078,-0.32 -0.082,-0.082 -0.16,-0.082 -0.32,-0.082 -0.161,0 -0.243,0 -0.321,0.082 -0.082,0.16 -0.082,0.238 -0.082,0.398 l 0,0.801 -0.238,0 0,-0.801 c 0,-0.398 0.32,-0.558 0.641,-0.558 0.476,0 0.636,0.238 0.636,0.558 l 0,0.719 z"
         style="fill:#00508f;fill-opacity:1;fill-rule:nonzero;stroke:none"
         id="path4229"
         inkscape:connector-curvature="0" /><path
         d="m 17.039,2.322 0.32,0 C 17.762,2.322 18,2.08 18,1.841 18,1.681 17.922,1.361 17.359,1.361 l -0.32,0 0,0.961 z m -0.16,-1.121 0.562,0 c 0.481,0 0.797,0.32 0.797,0.64 0,0.321 -0.238,0.637 -0.797,0.637 l -0.562,0 0,-1.277 z"
         style="fill:#00508f;fill-opacity:1;fill-rule:nonzero;stroke:none"
         id="path4231"
         inkscape:connector-curvature="0" /><path
         d="m 19.68,1.201 0,0.16 -0.641,0 0,0.398 0.641,0 0,0.161 -0.641,0 0,0.402 0.641,0 0,0.156 -0.879,0 0,-1.277 0.879,0 z"
         style="fill:#00508f;fill-opacity:1;fill-rule:nonzero;stroke:none"
         id="path4233"
         inkscape:connector-curvature="0" /><path
         d="m 20.879,5.681 c 0.562,0.321 1.043,0.641 1.043,0.641 l 0,4.078 C 21.52,10.24 18.719,8.798 18.641,8.72 l 2.238,-3.039 z"
         style="fill:#ffffff;fill-opacity:1;fill-rule:nonzero;stroke:none"
         id="path4235"
         inkscape:connector-curvature="0" /><path
         d="M 3.52,8.478 C 3.039,8.72 0.641,9.92 0.238,10.08 l 0,-4.078 c 0.082,0 0.481,-0.321 0.961,-0.641 L 3.52,8.478 Z"
         style="fill:#ffffff;fill-opacity:1;fill-rule:nonzero;stroke:none"
         id="path4237"
         inkscape:connector-curvature="0" /><path
         d="m 22.16,32.4 -22,0 0,-14.801 c 0,-6.719 10.481,-12.16 10.879,-12.32 l 0.16,0 C 11.68,5.521 22.32,11.041 22.32,18.08 l 0,14.32 -0.16,0 z"
         style="fill:#00508f;fill-opacity:1;fill-rule:nonzero;stroke:none"
         id="path4239"
         inkscape:connector-curvature="0" /><path
         d="m 20.48,13.439 c -3.519,4 -5.761,6.481 -6,6.801 0.079,0.082 6.879,7.68 7.598,8.48 l 0,3.36 -3.519,0 c -0.637,-0.719 -7.2,-8 -7.278,-8.16 -0.082,0.082 -6.562,7.441 -7.203,8.16 l -3.68,0 0,-3.442 C 1.121,27.841 7.762,20.322 7.84,20.24 7.762,20.162 2.238,14.002 1.762,13.439 c 0.879,-1.359 2,-2.641 3.277,-3.68 0.481,0.563 6,6.719 6.082,6.801 0.078,-0.082 5.52,-6.238 6,-6.801 1.277,1.039 2.481,2.321 3.359,3.68"
         style="fill:#ffc20e;fill-opacity:1;fill-rule:nonzero;stroke:none"
         id="path4241"
         inkscape:connector-curvature="0" /><path
         d="m 8.879,16.88 0,-0.878 1.121,0 0,0.718 4.398,0 0,6.641 -0.957,0.961 -5.441,0 0,-6.563 0.879,-0.879 z"
         style="fill:#00508f;fill-opacity:1;fill-rule:nonzero;stroke:none"
         id="path4243"
         inkscape:connector-curvature="0" /><path
         d="m 8.48,17.681 0.399,0 0,-0.402 -0.399,0.402"
         style="fill:#ffc20e;fill-opacity:1;fill-rule:nonzero;stroke:none"
         id="path4245"
         inkscape:connector-curvature="0" /><path
         d="m 14.078,17.041 -4.156,0 0,0.64 3.437,0 0,6.16 0.641,-0.64 c 0.078,-0.082 0.078,-5.84 0.078,-6.16"
         style="fill:#ffc20e;fill-opacity:1;fill-rule:nonzero;stroke:none"
         id="path4247"
         inkscape:connector-curvature="0" /><path
         d="m 9.121,17.681 0.559,0 0,-1.359 -0.559,0 0,1.359 z"
         style="fill:#ee312f;fill-opacity:1;fill-rule:nonzero;stroke:none"
         id="path4249"
         inkscape:connector-curvature="0" /><path
         d="m 11.039,31.201 c 0,0 -0.48,-0.879 -0.559,-1.039 l -1.441,0 c 0,0 0.641,-1.121 0.723,-1.282 C 9.68,28.72 9.039,27.599 9.039,27.599 l 1.441,0 c 0.079,-0.16 0.719,-1.277 0.719,-1.277 0,0 0.641,1.117 0.723,1.277 l 1.437,0 c 0,0 -0.64,1.121 -0.718,1.281 0.078,0.161 0.718,1.282 0.718,1.282 l -1.437,0 c -0.082,0.16 -0.723,1.277 -0.723,1.277 l -0.16,-0.238 z"
         style="fill:#00508f;fill-opacity:1;fill-rule:nonzero;stroke:none"
         id="path4251"
         inkscape:connector-curvature="0" /><path
         d="m 10.641,29.92 c 0,0 0.32,0.558 0.48,0.878 0.16,-0.32 0.559,-0.957 0.559,-0.957 l 1.121,0 c -0.16,-0.32 -0.563,-0.961 -0.563,-0.961 0,0 0.403,-0.64 0.563,-0.96 l -1.121,0 c 0,0 -0.399,-0.641 -0.559,-0.961 -0.16,0.32 -0.562,0.961 -0.562,0.961 l -1.118,0 C 9.602,28.24 10,28.88 10,28.88 c 0,0 -0.398,0.641 -0.559,0.961 0.399,0 1.118,0 1.2,0.079 z"
         style="fill:#ffc20e;fill-opacity:1;fill-rule:nonzero;stroke:none"
         id="path4253"
         inkscape:connector-curvature="0" /><path
         d="m 11.039,13.041 c 0,0 -0.48,-0.879 -0.559,-1.039 l -1.441,0 c 0,0 0.641,-1.122 0.723,-1.282 C 9.68,10.56 9.039,9.439 9.039,9.439 l 1.441,0 c 0.079,-0.16 0.719,-1.277 0.719,-1.277 0,0 0.641,1.117 0.723,1.277 l 1.437,0 c 0,0 -0.64,1.121 -0.718,1.281 0.078,0.16 0.718,1.282 0.718,1.282 l -1.437,0 c -0.082,0.16 -0.723,1.277 -0.723,1.277 l -0.16,-0.238 z"
         style="fill:#00508f;fill-opacity:1;fill-rule:nonzero;stroke:none"
         id="path4255"
         inkscape:connector-curvature="0" /><path
         d="m 10.641,11.841 c 0,0 0.32,0.559 0.48,0.879 0.16,-0.32 0.559,-0.961 0.559,-0.961 l 1.121,0 c -0.16,-0.32 -0.563,-0.961 -0.563,-0.961 0,0 0.403,-0.636 0.563,-0.957 l -1.121,0 c 0,0 -0.399,-0.64 -0.559,-0.961 -0.16,0.321 -0.562,0.961 -0.562,0.961 l -1.118,0 C 9.602,10.162 10,10.798 10,10.798 c 0,0 -0.398,0.641 -0.559,0.961 0.399,0 1.118,0 1.2,0.082 z"
         style="fill:#ffc20e;fill-opacity:1;fill-rule:nonzero;stroke:none"
         id="path4257"
         inkscape:connector-curvature="0" /><path
         d="m 3.359,22.72 c 0,0 -0.48,-0.879 -0.558,-1.039 l -1.442,0 C 1.359,21.681 2,20.56 2.078,20.4 2,20.24 1.359,19.119 1.359,19.119 l 1.442,0 0.64,-1.117 c 0,0 0.637,1.117 0.719,1.277 l 1.442,0 c 0,0 -0.641,1.121 -0.723,1.281 0.082,0.16 0.723,1.281 0.723,1.281 l -1.442,0 C 4.078,22.002 3.441,23.119 3.441,23.119 L 3.359,22.72 Z"
         style="fill:#00508f;fill-opacity:1;fill-rule:nonzero;stroke:none"
         id="path4259"
         inkscape:connector-curvature="0" /><path
         d="m 2.961,21.521 c 0,0 0.32,0.559 0.48,0.879 C 3.602,22.08 4,21.439 4,21.439 l 1.121,0 c -0.16,-0.32 -0.562,-0.961 -0.562,-0.961 0,0 0.402,-0.637 0.562,-0.957 l -1.121,0 c 0,0 -0.398,-0.641 -0.559,-0.961 -0.16,0.32 -0.562,0.961 -0.562,0.961 l -1.117,0 c 0.238,0.32 0.636,0.957 0.636,0.957 0,0 -0.398,0.641 -0.558,0.961 0.32,0 1.121,0 1.121,0.082 z"
         style="fill:#ffc20e;fill-opacity:1;fill-rule:nonzero;stroke:none"
         id="path4261"
         inkscape:connector-curvature="0" /><path
         d="m 18.719,22.72 c 0,0 -0.481,-0.879 -0.559,-1.039 l -1.441,0 c 0,0 0.64,-1.121 0.722,-1.281 -0.082,-0.16 -0.722,-1.281 -0.722,-1.281 l 1.441,0 c 0.078,-0.16 0.719,-1.278 0.719,-1.278 0,0 0.641,1.118 0.723,1.278 l 1.437,0 c 0,0 -0.641,1.121 -0.719,1.281 0.078,0.16 0.719,1.281 0.719,1.281 l -1.437,0 c -0.082,0.16 -0.723,1.278 -0.723,1.278 l -0.16,-0.239 z"
         style="fill:#00508f;fill-opacity:1;fill-rule:nonzero;stroke:none"
         id="path4263"
         inkscape:connector-curvature="0" /><path
         d="m 18.32,21.521 c 0,0 0.321,0.559 0.481,0.879 0.16,-0.32 0.558,-0.961 0.558,-0.961 l 1.121,0 c -0.16,-0.32 -0.558,-0.961 -0.558,-0.961 0,0 0.398,-0.637 0.558,-0.957 l -1.121,0 c 0,0 -0.398,-0.641 -0.558,-0.961 -0.16,0.32 -0.563,0.961 -0.563,0.961 l -1.117,0 c 0.16,0.32 0.559,0.957 0.559,0.957 0,0 -0.399,0.641 -0.559,0.961 0.399,0 1.199,0 1.199,0.082 z"
         style="fill:#ffc20e;fill-opacity:1;fill-rule:nonzero;stroke:none"
         id="path4265"
         inkscape:connector-curvature="0" /><path
         d="m 8.32,24.002 4.801,0 0,-6 -4.801,0 0,6 z"
         style="fill:#ee312f;fill-opacity:1;fill-rule:nonzero;stroke:none"
         id="path4267"
         inkscape:connector-curvature="0" /><path
         d="m 10.641,23.119 c 0,0 -0.481,-0.879 -0.563,-1.039 l -1.437,0 c 0,0 0.64,-1.121 0.718,-1.282 -0.078,-0.16 -0.718,-1.277 -0.718,-1.277 l 1.437,0 c 0.082,-0.16 0.723,-1.281 0.723,-1.281 0,0 0.64,1.121 0.719,1.281 l 1.441,0 c 0,0 -0.641,1.117 -0.723,1.277 0.082,0.161 0.723,1.282 0.723,1.282 l -1.441,0 c -0.079,0.16 -0.719,1.281 -0.719,1.281 l -0.16,-0.242 z"
         style="fill:#00508f;fill-opacity:1;fill-rule:nonzero;stroke:none"
         id="path4269"
         inkscape:connector-curvature="0" /><path
         d="m 10.238,21.841 c 0,0 0.321,0.559 0.481,0.879 0.16,-0.32 0.562,-0.961 0.562,-0.961 l 1.117,0 c -0.16,-0.32 -0.558,-0.961 -0.558,-0.961 0,0 0.398,-0.636 0.558,-0.957 l -1.117,0 c 0,0 -0.402,-0.64 -0.562,-0.961 -0.16,0.321 -0.559,0.961 -0.559,0.961 l -1.121,0 c 0.16,0.321 0.563,0.957 0.563,0.957 0,0 -0.403,0.641 -0.563,0.961 0.402,0 1.199,0 1.199,0.082 z"
         style="fill:#ffc20e;fill-opacity:1;fill-rule:nonzero;stroke:none"
         id="path4271"
         inkscape:connector-curvature="0" /><path
         d="m 27.922,7.841 c -0.082,0 -0.16,0 -0.242,0.079 l -0.078,0 C 27.52,7.681 27.441,7.439 27.441,7.201 l 0.079,0 c 0.082,0.16 0.16,0.32 0.242,0.398 0.078,0.082 0.238,0.16 0.558,0.16 l 0.16,0 -0.402,-2 C 28,5.279 27.922,5.279 27.602,5.201 l 0,-0.082 1.199,0 0,0.082 C 28.398,5.279 28.398,5.279 28.48,5.759 l 0.399,2 0.32,0 c 0.242,0 0.403,0 0.403,-0.16 C 29.68,7.521 29.68,7.361 29.68,7.201 l 0.082,0 c 0,0.238 0.078,0.558 0.078,0.719 l -0.078,0 C 29.68,7.841 29.68,7.841 29.52,7.841 l -1.598,0 z"
         style="fill:#000000;fill-opacity:1;fill-rule:nonzero;stroke:none"
         id="path4273"
         inkscape:connector-curvature="0" /><path
         d="m 29.922,6.08 c 0.078,0.48 0.316,0.718 0.398,0.718 0.078,0 0.16,0.082 0.16,0.082 0.079,0 0.239,-0.082 0.239,-0.242 C 30.641,6.4 30.48,6.24 29.922,6.08 M 30.801,5.681 C 30.559,5.439 30.32,5.361 30.16,5.361 c -0.238,0 -0.32,0.32 -0.32,0.48 l 0,0.079 c 0.398,0.082 1.121,0.402 1.121,0.718 0,0.16 -0.16,0.321 -0.32,0.321 C 30.48,6.959 30.238,6.88 30,6.72 29.68,6.478 29.52,6.08 29.52,5.681 c 0,-0.48 0.242,-0.64 0.402,-0.64 0.238,0.078 0.558,0.16 0.879,0.64 z"
         style="fill:#000000;fill-opacity:1;fill-rule:nonzero;stroke:none"
         id="path4275"
         inkscape:connector-curvature="0" /><path
         d="m 33.52,7.841 -0.961,0 0,-0.082 c 0.242,-0.078 0.242,-0.078 0.32,-0.48 l 0.32,-2.238 0.082,0 1.039,2.078 0.399,-2.078 0.082,0 c 0.558,1.199 0.961,2.16 1.121,2.32 0.156,0.32 0.156,0.32 0.476,0.398 l 0,0.082 -0.878,0 0,-0.082 0.16,0 c 0.16,0 0.16,-0.078 0.082,-0.238 C 35.68,7.201 35.281,6.24 34.961,5.681 l -0.402,2.16 -0.079,0 -1.039,-2.082 -0.242,1.762 c 0,0.238 0,0.238 0.082,0.32 l 0.239,0 z"
         style="fill:#000000;fill-opacity:1;fill-rule:nonzero;stroke:none"
         id="path4277"
         inkscape:connector-curvature="0" /><path
         d="m 36.641,5.279 c 0,0.242 0.16,0.723 0.16,0.801 0.16,0.242 0.558,0.718 0.801,0.718 0.16,0 0.078,-0.16 0.078,-0.32 L 37.441,5.521 c -0.082,-0.242 0,-0.32 0.079,-0.32 0.082,0 0.402,0.16 0.64,0.398 l 0,0.082 C 38,5.599 37.922,5.521 37.84,5.521 c -0.078,0 0,0.078 0,0.16 l 0.238,0.957 C 38.16,7.041 38,7.041 37.922,7.041 c -0.082,0 -0.082,0 -0.16,-0.082 C 37.52,6.88 37.281,6.638 36.961,6.24 l 0.32,1.68 0,0.16 -0.64,-0.16 0,-0.079 0.238,0 c 0.16,0 0.16,0 0.082,-0.242 L 36.559,5.681 C 36.48,5.439 36.48,5.279 36.398,5.041 l 0.243,0.238 z"
         style="fill:#000000;fill-opacity:1;fill-rule:nonzero;stroke:none"
         id="path4279"
         inkscape:connector-curvature="0" /><path
         d="m 39.602,6.88 c 0.078,0 0.238,0 0.238,-0.082 0,-0.16 -0.078,-0.558 -0.16,-0.718 -0.078,-0.16 -0.239,-0.321 -0.321,-0.399 -0.16,-0.16 -0.32,-0.32 -0.398,-0.32 -0.082,0 -0.082,0.16 -0.082,0.32 0,0.16 0,0.481 0.16,0.719 0.16,0.238 0.242,0.398 0.32,0.48 l 0.243,0 M 40.238,5.599 C 40.078,5.521 40,5.439 39.922,5.439 l 0,0.16 C 40,6.08 40.078,6.56 40.16,6.959 l -0.398,0 C 39.52,6.959 39.199,6.798 38.961,6.638 38.719,6.4 38.48,6.002 38.48,5.521 c 0,-0.32 0.161,-0.402 0.239,-0.402 0.082,0 0.242,0.16 0.32,0.16 0.242,0.16 0.402,0.402 0.563,0.562 L 39.52,5.279 c 0,-0.16 0.082,-0.238 0.082,-0.238 0.16,0.078 0.476,0.32 0.636,0.558 z"
         style="fill:#000000;fill-opacity:1;fill-rule:nonzero;stroke:none"
         id="path4281"
         inkscape:connector-curvature="0" /><path
         d="m 41.121,5.279 c 0,0.16 0.078,0.402 0.16,0.801 l 0.239,0.48 c 0.082,0.16 0.16,0.16 0.242,0.16 0.078,0 0.078,0 0.16,-0.082 l 0.078,0 c 0.078,0 0.078,0.082 0.078,0.16 l 0,0.161 c 0,0.082 -0.078,0.082 -0.156,0.082 -0.082,0 -0.402,-0.243 -0.563,-0.719 l 0.082,0.316 C 41.52,6.88 41.52,7.041 41.359,7.041 41.281,7.041 40.961,6.88 40.801,6.638 L 40.879,6.56 c 0.082,0.078 0.242,0.238 0.32,0.238 l 0,-0.32 -0.16,-0.637 C 40.961,5.599 40.961,5.439 40.879,5.201 l 0.242,0.078 z"
         style="fill:#000000;fill-opacity:1;fill-rule:nonzero;stroke:none"
         id="path4283"
         inkscape:connector-curvature="0" /><path
         d="m 42.641,6.08 c 0.078,0.48 0.32,0.718 0.398,0.718 0.082,0 0.16,0.082 0.16,0.082 0.082,0 0.242,-0.082 0.242,-0.242 C 43.359,6.4 43.199,6.24 42.641,6.08 M 43.52,5.681 c -0.239,-0.242 -0.481,-0.32 -0.641,-0.32 -0.238,0 -0.32,0.32 -0.32,0.48 l 0,0.079 c 0.402,0.082 1.121,0.402 1.121,0.718 0,0.16 -0.16,0.321 -0.321,0.321 -0.16,0 -0.398,-0.079 -0.64,-0.239 -0.321,-0.242 -0.481,-0.64 -0.481,-1.039 0,-0.48 0.242,-0.64 0.403,-0.64 0.238,0.078 0.558,0.16 0.879,0.64 z"
         style="fill:#000000;fill-opacity:1;fill-rule:nonzero;stroke:none"
         id="path4285"
         inkscape:connector-curvature="0" /><path
         d="m 46.238,7.841 -0.957,0 0,-0.082 C 45.52,7.681 45.52,7.681 45.602,7.279 l 0.32,-2.238 0.078,0 1.039,2.078 0.402,-2.078 0.079,0 c 0.558,1.199 0.96,2.16 1.121,2.32 0.16,0.32 0.16,0.32 0.48,0.398 l 0,0.082 -0.883,0 0,-0.082 0.16,0 c 0.161,0 0.161,-0.078 0.082,-0.238 C 48.398,7.201 48,6.24 47.68,5.681 l -0.399,2.16 -0.082,0 -1.039,-2.082 -0.238,1.762 c 0,0.238 0,0.238 0.078,0.32 l 0.238,0 z"
         style="fill:#000000;fill-opacity:1;fill-rule:nonzero;stroke:none"
         id="path4287"
         inkscape:connector-curvature="0" /><path
         d="m 49.68,6.88 c 0.082,0 0.242,0 0.242,-0.082 0,-0.16 -0.082,-0.558 -0.16,-0.718 C 49.68,5.92 49.52,5.759 49.441,5.681 c -0.16,-0.16 -0.32,-0.32 -0.402,-0.32 -0.078,0 -0.078,0.16 -0.078,0.32 0,0.16 0,0.481 0.16,0.719 0.16,0.238 0.238,0.398 0.32,0.48 l 0.239,0 M 50.32,5.599 C 50.16,5.521 50.078,5.439 50,5.439 l 0,0.16 c 0.078,0.481 0.16,0.961 0.238,1.36 l -0.398,0 c -0.238,0 -0.559,-0.161 -0.801,-0.321 -0.238,-0.238 -0.48,-0.636 -0.48,-1.117 0,-0.32 0.16,-0.402 0.242,-0.402 0.078,0 0.238,0.16 0.32,0.16 0.238,0.16 0.399,0.402 0.559,0.562 L 49.602,5.279 c 0,-0.16 0.078,-0.238 0.078,-0.238 0.16,0.078 0.48,0.32 0.64,0.558 z"
         style="fill:#000000;fill-opacity:1;fill-rule:nonzero;stroke:none"
         id="path4289"
         inkscape:connector-curvature="0" /><path
         d="m 50.961,5.279 c 0,0.242 0.16,0.723 0.16,0.801 0.16,0.242 0.641,0.718 0.801,0.8 C 52,6.88 52,6.72 52,6.56 L 51.762,5.599 c -0.082,-0.238 0,-0.32 0.078,-0.32 0.082,0 0.398,0.16 0.558,0.402 l 0,0.078 C 52.32,5.681 52.16,5.599 52.078,5.599 l 0,0.16 0.242,0.961 c 0.078,0.399 0,0.481 -0.082,0.481 -0.078,0 -0.078,0 -0.16,-0.082 C 51.922,7.041 51.602,6.798 51.281,6.4 l 0.078,0.398 c 0.082,0.243 0.082,0.403 -0.078,0.403 -0.082,0 -0.402,-0.16 -0.64,-0.403 l 0,-0.078 c 0.078,0.078 0.238,0.239 0.32,0.239 l 0,-0.239 -0.16,-0.718 C 50.719,5.759 50.719,5.521 50.641,5.361 l 0.32,-0.082 z"
         style="fill:#000000;fill-opacity:1;fill-rule:nonzero;stroke:none"
         id="path4291"
         inkscape:connector-curvature="0" /><path
         d="M 53.922,6.88 C 54,6.88 54.16,6.88 54.16,6.798 54.16,6.638 54.078,6.24 54,6.08 53.922,5.92 53.762,5.759 53.68,5.681 c -0.16,-0.16 -0.321,-0.32 -0.399,-0.32 -0.082,0 -0.082,0.16 -0.082,0.32 0,0.16 0,0.481 0.16,0.719 0.161,0.238 0.243,0.398 0.321,0.48 l 0.242,0 M 54.641,5.599 C 54.48,5.521 54.398,5.439 54.32,5.439 l 0,0.16 c 0.078,0.481 0.16,0.961 0.239,1.36 l -0.399,0 c -0.238,0 -0.558,-0.161 -0.801,-0.321 -0.238,-0.238 -0.48,-0.636 -0.48,-1.117 0,-0.32 0.16,-0.402 0.242,-0.402 0.078,0 0.238,0.16 0.32,0.16 C 53.68,5.439 53.84,5.681 54,5.841 L 53.922,5.279 C 53.922,5.119 54,5.041 54,5.041 c 0.078,0.078 0.398,0.32 0.641,0.558 z"
         style="fill:#000000;fill-opacity:1;fill-rule:nonzero;stroke:none"
         id="path4293"
         inkscape:connector-curvature="0" /><path
         d="m 55.441,5.279 c 0,0.242 0.161,0.723 0.161,0.801 0.16,0.242 0.636,0.718 0.796,0.8 0.082,0 0.082,-0.16 0.082,-0.32 L 56.238,5.599 c -0.078,-0.238 0,-0.32 0.082,-0.32 0.078,0 0.399,0.16 0.559,0.402 l 0,0.078 c -0.078,-0.078 -0.238,-0.16 -0.32,-0.16 l 0,0.16 0.242,0.961 c 0.078,0.399 0,0.481 -0.082,0.481 -0.078,0 -0.078,0 -0.16,-0.082 C 56.398,7.041 56.078,6.798 55.762,6.4 l 0.078,0.398 c 0.082,0.243 0.082,0.403 -0.078,0.403 -0.082,0 -0.403,-0.16 -0.641,-0.403 l 0,-0.078 c 0.078,0.078 0.238,0.239 0.32,0.239 l 0,-0.239 -0.16,-0.718 C 55.199,5.759 55.199,5.521 55.121,5.361 l 0.32,-0.082 z"
         style="fill:#000000;fill-opacity:1;fill-rule:nonzero;stroke:none"
         id="path4295"
         inkscape:connector-curvature="0" /><path
         d="m 58.961,7.041 c -0.082,0 -0.242,-0.082 -0.563,-0.082 -0.078,0.082 -0.16,0.082 -0.32,0.082 -0.156,0 -0.398,-0.082 -0.558,-0.243 -0.239,-0.16 -0.321,-0.398 -0.321,-0.636 0,-0.242 0.16,-0.403 0.403,-0.481 -0.161,-0.16 -0.243,-0.16 -0.243,-0.242 0,-0.078 0.082,-0.16 0.161,-0.238 -0.481,-0.242 -0.719,-0.403 -0.719,-0.641 0,-0.32 0.398,-0.398 0.719,-0.398 0.242,0 0.96,0.16 0.96,0.558 0,0.16 -0.16,0.321 -0.402,0.481 -0.156,0.078 -0.398,0.238 -0.398,0.32 0,0 0,0.078 0.082,0.078 0.238,0.082 0.398,0.16 0.558,0.242 0.16,0.161 0.321,0.321 0.321,0.559 0,0.078 0,0.16 -0.082,0.238 l 0.082,0 c 0.078,0.16 0.16,0.242 0.32,0.403 z M 57.68,5.201 c 0.082,0 0.16,-0.082 0.32,-0.16 0.16,-0.082 0.32,-0.243 0.32,-0.403 0,-0.238 -0.32,-0.316 -0.48,-0.316 -0.238,0 -0.559,0.078 -0.559,0.398 -0.082,0.16 0.078,0.321 0.399,0.481 m 0.558,1.277 C 58.238,6.08 58,5.841 57.762,5.841 c -0.16,0 -0.242,0.161 -0.242,0.399 0,0.16 0.082,0.32 0.082,0.48 0.078,0.16 0.16,0.16 0.32,0.16 0.238,0 0.316,-0.16 0.316,-0.402"
         style="fill:#000000;fill-opacity:1;fill-rule:nonzero;stroke:none"
         id="path4297"
         inkscape:connector-curvature="0" /><path
         d="m 60.078,6.88 c 0.082,0 0.242,0 0.242,-0.082 0,-0.16 -0.082,-0.558 -0.16,-0.718 -0.082,-0.16 -0.238,-0.321 -0.32,-0.399 -0.16,-0.16 -0.32,-0.32 -0.399,-0.32 -0.082,0 -0.082,0.16 -0.082,0.32 0,0.16 0,0.481 0.161,0.719 0.16,0.238 0.242,0.398 0.32,0.48 l 0.238,0 M 60.801,5.599 C 60.641,5.521 60.559,5.439 60.48,5.439 l 0,0.16 c 0.079,0.481 0.161,0.961 0.239,1.36 l -0.399,0 c -0.242,0 -0.558,-0.161 -0.8,-0.321 C 59.281,6.4 59.039,6.002 59.039,5.521 c 0,-0.32 0.16,-0.402 0.242,-0.402 0.078,0 0.239,0.16 0.321,0.16 C 59.84,5.439 60,5.681 60.16,5.841 L 60.078,5.279 c 0,-0.16 0.082,-0.238 0.082,-0.238 0.078,0.078 0.399,0.32 0.641,0.558 z"
         style="fill:#000000;fill-opacity:1;fill-rule:nonzero;stroke:none"
         id="path4299"
         inkscape:connector-curvature="0" /><path
         d="m 63.602,6.4 c 0,-0.559 -0.243,-1.039 -0.481,-1.121 l -0.16,0 c -0.242,0 -0.32,0.242 -0.32,0.562 0,0.637 0.32,0.957 0.398,1.039 l 0.16,0 c 0.242,0 0.403,-0.16 0.403,-0.48 m -0.243,0.641 c -0.078,0 -0.238,-0.082 -0.398,-0.161 -0.32,-0.16 -0.563,-0.558 -0.563,-1.121 0,-0.32 0.161,-0.64 0.481,-0.64 0.16,0 0.402,0.082 0.641,0.242 0.242,0.238 0.402,0.641 0.402,1.039 0,0.398 -0.242,0.641 -0.563,0.641"
         style="fill:#000000;fill-opacity:1;fill-rule:nonzero;stroke:none"
         id="path4301"
         inkscape:connector-curvature="0" /><path
         d="m 66,6.24 c 0,0.719 0.398,1.601 1.121,1.601 0.559,0 0.801,-0.562 0.801,-1.121 0,-0.64 -0.402,-1.519 -1.121,-1.519 C 66.238,5.201 66,5.681 66,6.24 m -0.398,0.082 c 0,-0.723 0.476,-1.203 1.117,-1.203 0.883,0 1.519,0.722 1.519,1.601 0,0.719 -0.476,1.2 -1.117,1.2 -0.883,0 -1.519,-0.719 -1.519,-1.598"
         style="fill:#000000;fill-opacity:1;fill-rule:nonzero;stroke:none"
         id="path4303"
         inkscape:connector-curvature="0" /><path
         d="M 69.121,6.798 68.879,5.599 c -0.078,-0.32 0,-0.48 0.082,-0.48 0.16,0 0.559,0.32 0.641,0.48 l 0,0.082 c -0.082,-0.082 -0.321,-0.32 -0.403,-0.32 -0.078,0 -0.078,0.078 0,0.32 l 0.242,1.117 0.481,0 0.156,0.082 -0.558,0 0.16,0.559 -0.321,-0.238 -0.078,-0.321 -0.32,0 -0.082,-0.082 0,-0.078 0.242,0 0,0.078 z"
         style="fill:#000000;fill-opacity:1;fill-rule:nonzero;stroke:none"
         id="path4305"
         inkscape:connector-curvature="0" /><path
         d="m 71.121,6.88 c 0.078,0 0.238,0 0.238,-0.082 0,-0.16 -0.078,-0.558 -0.16,-0.718 -0.078,-0.16 -0.238,-0.321 -0.32,-0.399 -0.16,-0.16 -0.32,-0.32 -0.399,-0.32 -0.082,0 -0.082,0.16 -0.082,0.32 0,0.16 0,0.481 0.161,0.719 0.16,0.238 0.242,0.398 0.32,0.48 l 0.242,0 M 71.762,5.599 C 71.602,5.521 71.52,5.439 71.441,5.439 l 0,0.16 c 0.079,0.481 0.161,0.961 0.239,1.36 l -0.399,0 C 71.039,6.959 70.719,6.798 70.48,6.638 70.238,6.4 70,6.002 70,5.521 c 0,-0.32 0.16,-0.402 0.238,-0.402 0.082,0 0.242,0.16 0.321,0.16 0.242,0.16 0.402,0.402 0.562,0.562 L 71.039,5.279 c 0,-0.16 0.082,-0.238 0.082,-0.238 0.16,0.078 0.481,0.32 0.641,0.558 z"
         style="fill:#000000;fill-opacity:1;fill-rule:nonzero;stroke:none"
         id="path4307"
         inkscape:connector-curvature="0" /><path
         d="m 74,7.041 c -0.078,0 -0.238,-0.082 -0.559,-0.082 -0.082,0.082 -0.16,0.082 -0.32,0.082 -0.16,0 -0.402,-0.082 -0.562,-0.243 C 72.32,6.638 72.238,6.4 72.238,6.162 c 0,-0.242 0.16,-0.403 0.403,-0.481 -0.161,-0.16 -0.243,-0.16 -0.243,-0.242 0,-0.078 0.082,-0.16 0.161,-0.238 C 72.078,4.959 71.84,4.798 71.84,4.56 c 0,-0.32 0.398,-0.398 0.719,-0.398 0.242,0 0.961,0.16 0.961,0.558 0,0.16 -0.161,0.321 -0.399,0.481 -0.16,0.078 -0.402,0.238 -0.402,0.32 0,0 0,0.078 0.082,0.078 0.238,0.082 0.398,0.16 0.558,0.242 0.161,0.161 0.321,0.321 0.321,0.559 0,0.078 0,0.16 -0.078,0.238 l 0.078,0 c 0.082,0.16 0.16,0.242 0.32,0.403 z m -1.281,-1.84 c 0.082,0 0.16,-0.082 0.32,-0.16 0.16,-0.082 0.32,-0.243 0.32,-0.403 0,-0.238 -0.32,-0.316 -0.48,-0.316 -0.238,0 -0.559,0.078 -0.559,0.398 -0.082,0.16 0.078,0.321 0.399,0.481 m 0.562,1.277 c 0,-0.398 -0.242,-0.637 -0.48,-0.637 -0.16,0 -0.242,0.161 -0.242,0.399 0,0.16 0.082,0.32 0.082,0.48 0.078,0.16 0.16,0.16 0.32,0.16 0.238,0 0.32,-0.16 0.32,-0.402"
         style="fill:#000000;fill-opacity:1;fill-rule:nonzero;stroke:none"
         id="path4309"
         inkscape:connector-curvature="0" /><path
         d="m 75.359,6.4 c 0,-0.559 -0.238,-1.039 -0.48,-1.121 l -0.16,0 c -0.239,0 -0.321,0.242 -0.321,0.562 0,0.637 0.321,0.957 0.403,1.039 l 0.16,0 c 0.238,0 0.398,-0.16 0.398,-0.48 M 75.121,7.041 C 75.039,7.041 74.879,6.959 74.719,6.88 74.398,6.72 74.16,6.322 74.16,5.759 c 0,-0.32 0.16,-0.64 0.481,-0.64 0.16,0 0.398,0.082 0.64,0.242 0.239,0.238 0.399,0.641 0.399,1.039 0,0.398 -0.239,0.641 -0.559,0.641"
         style="fill:#000000;fill-opacity:1;fill-rule:nonzero;stroke:none"
         id="path4311"
         inkscape:connector-curvature="0" /><path
         d="M 30.16,2.478 C 29.922,2.478 29.84,2.4 29.84,2.24 l 0,-2.16 -0.078,0 -1.602,2 0,-1.602 c 0,-0.156 0.078,-0.238 0.399,-0.238 l 0,-0.078 -0.879,0 0,0.078 c 0.242,0 0.32,0.082 0.32,0.238 l 0,1.442 c 0,0.242 0,0.32 -0.078,0.402 -0.082,0.078 -0.16,0.156 -0.32,0.156 l 0,0.082 0.558,0 1.602,-1.922 0,1.602 c 0,0.16 -0.082,0.238 -0.403,0.238 l 0,0.082 0.879,0 0,-0.082 -0.078,0 z"
         style="fill:#000000;fill-opacity:1;fill-rule:nonzero;stroke:none"
         id="path4313"
         inkscape:connector-curvature="0" /><path
         d="m 34.48,0.72 c 0,-0.16 -0.082,-0.48 -0.16,-0.558 l -1.84,0 0,0.078 c 0.321,0 0.399,0.082 0.399,0.32 l 0,1.52 c 0,0.32 0,0.32 -0.32,0.398 l 0,0.082 1.679,0 0,-0.558 -0.078,0 c 0,0.16 -0.082,0.238 -0.082,0.32 C 34,2.4 33.922,2.4 33.68,2.4 l -0.321,0 c -0.078,0 -0.16,0 -0.16,-0.16 l 0,-0.879 0.403,0 c 0.32,0 0.32,0 0.398,0.32 l 0.078,0 0,-0.722 -0.078,0 c -0.078,0.242 -0.078,0.32 -0.398,0.32 l -0.321,0 0,-0.719 c 0,-0.16 0,-0.238 0.078,-0.32 0.082,-0.078 0.243,-0.078 0.403,-0.078 0.316,0 0.398,0 0.476,0.16 0.082,0.078 0.16,0.238 0.16,0.316 L 34.48,0.72 Z"
         style="fill:#000000;fill-opacity:1;fill-rule:nonzero;stroke:none"
         id="path4315"
         inkscape:connector-curvature="0" /><path
         d="M 40.238,2.478 C 40,2.478 39.922,2.4 39.84,2.08 39.762,1.841 39.52,1.119 39.199,0.08 l -0.078,0 C 38.879,0.72 38.641,1.439 38.48,1.92 38.238,1.279 38.078,0.638 37.84,0.08 l -0.078,0 c -0.16,0.64 -0.403,1.359 -0.641,2 -0.082,0.32 -0.16,0.32 -0.402,0.398 l 0,0.082 0.883,0 0,-0.082 C 37.359,2.478 37.281,2.4 37.359,2.24 37.52,1.759 37.68,1.201 37.84,0.72 38,1.361 38.238,2.002 38.48,2.56 l 0.079,0 c 0.242,-0.64 0.402,-1.199 0.64,-1.84 0.16,0.481 0.403,1.2 0.403,1.52 0.078,0.238 0,0.238 -0.243,0.32 l 0,0.078 0.801,0 0,-0.16 0.078,0 z"
         style="fill:#000000;fill-opacity:1;fill-rule:nonzero;stroke:none"
         id="path4317"
         inkscape:connector-curvature="0" /><path
         d="m 47.762,0.72 c 0,-0.16 -0.082,-0.48 -0.16,-0.64 l -1.922,0 0,0.082 c 0.558,0.718 1.039,1.519 1.601,2.238 l -0.64,0 C 46.238,2.4 46.16,2.4 46.078,2.24 46,2.162 46,2.08 45.922,1.92 l -0.082,0 c 0,0.242 0.082,0.558 0.082,0.718 l 0.078,0 C 46.078,2.56 46.078,2.56 46.16,2.56 l 1.52,0 0,-0.082 C 47.199,1.759 46.641,1.041 46.16,0.24 l 0.641,0 c 0.48,0 0.64,0 0.719,0.16 0.082,0.078 0.16,0.238 0.242,0.398 l 0,-0.078 z"
         style="fill:#000000;fill-opacity:1;fill-rule:nonzero;stroke:none"
         id="path4319"
         inkscape:connector-curvature="0" /><path
         d="M 52,0.72 C 52,0.56 51.922,0.24 51.84,0.162 l -1.84,0 0,0.078 c 0.32,0 0.398,0.082 0.398,0.32 l 0,1.52 c 0,0.32 0,0.32 -0.32,0.398 l 0,0.082 1.684,0 0,-0.558 -0.082,0 c 0,0.16 -0.078,0.238 -0.078,0.32 C 51.52,2.4 51.441,2.4 51.199,2.4 l -0.32,0 c -0.078,0 -0.16,0 -0.16,-0.16 l 0,-0.879 0.32,0 c 0.32,0 0.32,0 0.402,0.32 l 0.079,0 0,-0.722 -0.079,0 c -0.082,0.242 -0.082,0.32 -0.402,0.32 l -0.32,0 0,-0.719 c 0,-0.16 0,-0.238 0.082,-0.32 0.078,-0.078 0.238,-0.078 0.398,-0.078 0.321,0 0.403,0 0.481,0.16 0.082,0.078 0.16,0.238 0.16,0.316 L 52,0.72 Z"
         style="fill:#000000;fill-opacity:1;fill-rule:nonzero;stroke:none"
         id="path4321"
         inkscape:connector-curvature="0" /><path
         d="M 55.52,2.162 C 55.359,1.841 55.281,1.521 55.121,1.201 l 0.719,0 -0.32,0.961 z m 0.32,-2.082 0,0.082 c 0.238,0 0.238,0.078 0.238,0.238 C 56,0.56 55.922,0.72 55.84,0.959 l -0.801,0 C 54.961,0.798 54.961,0.638 54.879,0.478 54.801,0.24 54.801,0.24 55.121,0.162 l 0,-0.082 -0.801,0 0,0.082 c 0.239,0 0.321,0.078 0.399,0.398 l 0.801,2 0.082,0 c 0.238,-0.64 0.476,-1.359 0.718,-2 0.078,-0.32 0.16,-0.32 0.399,-0.398 l 0,-0.082 -0.879,0 z"
         style="fill:#000000;fill-opacity:1;fill-rule:nonzero;stroke:none"
         id="path4323"
         inkscape:connector-curvature="0" /><path
         d="m 60.961,0.72 c 0,-0.082 -0.082,-0.48 -0.16,-0.558 l -1.602,0 0,0.078 c 0.321,0 0.321,0.082 0.321,0.398 l 0,1.524 c 0,0.316 0,0.316 -0.321,0.398 l 0,0.078 0.961,0 0,-0.078 c -0.32,0 -0.32,-0.082 -0.32,-0.398 l 0,-1.524 C 59.84,0.4 59.84,0.4 59.922,0.322 60,0.24 60.16,0.24 60.238,0.24 c 0.242,0 0.321,0 0.403,0.082 0.078,0.078 0.16,0.156 0.16,0.398 l 0.16,0 z"
         style="fill:#000000;fill-opacity:1;fill-rule:nonzero;stroke:none"
         id="path4325"
         inkscape:connector-curvature="0" /><path
         d="M 64.48,2.162 C 64.32,1.841 64.238,1.521 64.078,1.201 l 0.723,0 -0.321,0.961 z m 0.399,-2.082 0,0.082 c 0.242,0 0.242,0.078 0.242,0.238 -0.082,0.16 -0.16,0.32 -0.242,0.559 l -0.801,0 C 64,0.798 64,0.638 63.922,0.478 63.84,0.24 63.84,0.24 64.16,0.162 l 0,-0.082 -0.801,0 0,0.082 c 0.243,0 0.321,0.078 0.403,0.398 l 0.797,2 0.082,0 c 0.238,-0.64 0.48,-1.359 0.718,-2 0.082,-0.32 0.161,-0.32 0.403,-0.398 l 0,-0.082 -0.883,0 z"
         style="fill:#000000;fill-opacity:1;fill-rule:nonzero;stroke:none"
         id="path4327"
         inkscape:connector-curvature="0" /><path
         d="M 70.719,2.478 C 70.48,2.478 70.398,2.4 70.398,2.24 l 0,-2.16 -0.078,0 -1.601,2 0,-1.602 c 0,-0.156 0.082,-0.238 0.402,-0.238 l 0,-0.078 -0.883,0 0,0.078 c 0.242,0 0.321,0.082 0.321,0.238 l 0,1.442 c 0,0.242 0,0.32 -0.079,0.402 -0.082,0.078 -0.16,0.156 -0.32,0.156 l 0,0.082 0.559,0 1.601,-1.922 0,1.602 c 0,0.16 -0.082,0.238 -0.398,0.238 l 0,0.082 0.879,0 0,-0.082 -0.082,0 z"
         style="fill:#000000;fill-opacity:1;fill-rule:nonzero;stroke:none"
         id="path4329"
         inkscape:connector-curvature="0" /><path
         d="m 73.762,0.638 c 0,-0.316 0.16,-0.316 0.398,-0.316 0.719,0 1.039,0.558 1.039,1.117 0,0.402 -0.16,0.723 -0.48,0.883 -0.16,0.078 -0.399,0.156 -0.641,0.156 -0.156,0 -0.238,0 -0.316,-0.078 0,0 -0.082,-0.078 -0.082,-0.238 l 0,-1.524 0.082,0 z M 74.16,2.56 c 0.481,0 0.801,-0.082 1.039,-0.32 C 75.359,2.08 75.52,1.759 75.52,1.439 75.52,0.959 75.359,0.638 75.039,0.4 74.719,0.162 74.398,0.08 73.922,0.08 l -0.883,0 0,0.082 c 0.32,0 0.32,0.078 0.32,0.398 l 0,1.52 c 0,0.32 0,0.32 -0.32,0.398 l 0,0.082 1.121,0 z"
         style="fill:#000000;fill-opacity:1;fill-rule:nonzero;stroke:none"
         id="path4331"
         inkscape:connector-curvature="0" /></g></g></svg>